<svg width="151" height="151" viewBox="0 0 151 151" fill="none" xmlns="http://www.w3.org/2000/svg">
<path d="M142.622 108.079C142.814 107.251 142.808 106.596 142.603 106.115C142.397 105.635 141.894 105.156 141.092 104.679L123.73 94.4822L124.28 92.1077L138.885 91.7813L126.118 84.1833L126.675 81.7812L146.649 80.7129C147.575 80.6557 148.235 80.4625 148.628 80.1335C149.021 79.8045 149.315 79.2166 149.512 78.3698L150.224 78.5507L147.97 88.2698L147.258 88.0889C147.407 87.4446 147.433 86.9736 147.334 86.6757C147.236 86.3778 147.01 86.1841 146.659 86.0948C146.377 86.0234 145.964 85.9965 145.42 86.0142L132.929 86.3805L132.897 86.5185L141.664 91.7266L144.081 91.6678C144.998 91.6473 145.643 91.5186 146.015 91.2816C146.404 91.0491 146.665 90.6475 146.797 90.0769L147.509 90.2578L145.3 99.7836L144.588 99.6027C144.784 98.7559 144.824 98.1423 144.707 97.7619C144.591 97.3814 144.313 97.1353 143.873 97.0237C143.732 96.988 143.385 96.9583 142.832 96.9348L130.522 96.7622L130.49 96.9002L141.424 103.126C141.886 103.38 142.232 103.536 142.461 103.594C142.865 103.697 143.194 103.605 143.447 103.318C143.695 103.05 143.913 102.511 144.101 101.701L144.814 101.882L143.335 108.26L142.622 108.079Z" fill="black"/>
<path d="M119.997 114.071C118.366 112.496 117.387 110.985 117.062 109.537C116.736 108.089 117.011 106.669 117.885 105.276C118.522 104.263 119.325 103.535 120.296 103.092C121.268 102.649 122.356 102.536 123.563 102.754C124.769 102.971 126.031 103.533 127.347 104.437C128.542 105.259 129.512 106.232 130.257 107.357C131.018 108.491 131.454 109.675 131.568 110.909C131.681 112.143 131.4 113.298 130.724 114.375C129.69 116.021 128.365 116.855 126.748 116.877C125.132 116.899 123.438 116.301 121.668 115.084L125.709 108.649C122.654 106.685 120.525 106.66 119.322 108.575C118.954 109.161 118.833 109.871 118.959 110.706C119.1 111.551 119.585 112.451 120.415 113.406L119.997 114.071ZM129.588 113.492C129.946 112.922 129.902 112.337 129.457 111.736C129.011 111.135 128.163 110.381 126.912 109.476L125.152 112.278C126.438 113.162 127.416 113.709 128.085 113.92C128.759 114.157 129.26 114.014 129.588 113.492Z" fill="black"/>
<path d="M126.832 123.816C127.333 124.363 127.685 124.706 127.886 124.845C128.088 125.01 128.267 125.014 128.424 124.857C128.581 124.7 128.749 124.335 128.927 123.763L129.651 124.021L127.596 130.485L126.905 130.469L120.22 123.163L120.142 123.241C120.311 124.33 120.31 125.315 120.138 126.195C119.953 127.089 119.52 127.876 118.84 128.557C117.886 129.513 116.708 129.815 115.307 129.461C113.893 129.121 112.404 128.095 110.839 126.385C108.974 124.346 107.953 122.34 107.776 120.367C107.612 118.407 108.341 116.615 109.962 114.991C110.721 114.231 111.605 113.555 112.617 112.962C113.627 112.395 114.71 112.032 115.866 111.87L126.832 123.816ZM113.461 115.774C112.494 115.458 111.717 115.594 111.128 116.183C110.017 117.297 110.888 119.413 113.742 122.533C114.969 123.874 115.982 124.707 116.782 125.034C117.569 125.373 118.198 125.307 118.668 124.836C119.231 124.272 119.366 123.297 119.075 121.911L113.461 115.774Z" fill="black"/>
<path d="M101.111 121.859C102.177 121.178 103.335 120.871 104.583 120.939C104.754 120.941 104.878 120.917 104.955 120.868C105.079 120.789 105.135 120.631 105.124 120.394L105.021 119.727L105.647 119.327L109.068 124.698L108.443 125.098C107.474 123.875 106.432 123.053 105.318 122.634C104.197 122.24 103.189 122.329 102.293 122.902C101.814 123.208 101.531 123.578 101.444 124.01C101.342 124.453 101.442 124.933 101.744 125.45C101.923 125.757 102.148 125.98 102.419 126.117C102.675 126.264 103.053 126.367 103.553 126.424C104.048 126.508 104.884 126.595 106.061 126.686C107.58 126.781 108.735 126.997 109.526 127.335C110.311 127.699 110.925 128.261 111.369 129.021C111.831 129.813 112.062 130.608 112.062 131.407C112.046 132.216 111.835 132.962 111.427 133.644C111.004 134.337 110.437 134.91 109.726 135.364C108.768 135.976 107.78 136.208 106.76 136.061C106.595 136.033 106.459 136.054 106.351 136.123C106.181 136.231 106.122 136.402 106.173 136.636L106.29 137.327L105.664 137.727L102.875 133.384L103.5 132.984C104.273 133.799 105.134 134.348 106.083 134.629C107.032 134.91 107.878 134.814 108.619 134.34C109.021 134.083 109.267 133.76 109.357 133.369C109.447 132.979 109.379 132.589 109.153 132.201C108.992 131.927 108.784 131.715 108.529 131.568C108.267 131.447 107.921 131.346 107.492 131.265C107.057 131.21 106.366 131.152 105.419 131.092C104.266 131.007 103.334 130.882 102.622 130.715C101.919 130.565 101.301 130.306 100.767 129.936C100.227 129.593 99.7594 129.082 99.3631 128.403C98.6083 127.11 98.419 125.877 98.7951 124.705C99.1807 123.548 99.9528 122.6 101.111 121.859Z" fill="black"/>
<path d="M100.053 142.56C100.725 142.278 101.349 142.251 101.924 142.479C102.482 142.714 102.882 143.148 103.125 143.781C103.374 144.432 103.375 145.044 103.127 145.617C102.862 146.198 102.393 146.629 101.721 146.911C101.066 147.186 100.459 147.206 99.9008 146.971C99.3257 146.743 98.9135 146.304 98.6642 145.653C98.4216 145.02 98.4328 144.414 98.6979 143.833C98.9461 143.259 99.3978 142.835 100.053 142.56ZM92.7507 130.074C92.5081 129.441 92.2757 128.987 92.0536 128.713C91.8315 128.439 91.5591 128.288 91.2363 128.26C90.9036 128.257 90.4599 128.372 89.9055 128.605L89.6225 127.866L97.561 124.535L97.8441 125.273C97.2896 125.506 96.9016 125.74 96.6799 125.976C96.4482 126.236 96.3426 126.546 96.3631 126.905C96.3836 127.263 96.5152 127.759 96.7578 128.392L99.4769 135.486C99.7802 136.277 100.016 136.79 100.184 137.026C100.359 137.279 100.581 137.349 100.85 137.236C101.085 137.137 101.371 136.915 101.707 136.57L102.257 137.166L100.534 138.93L97.9041 141.534L97.0467 141.281L92.7507 130.074Z" fill="black"/>
<path d="M82.266 136.497C81.742 134.077 81.6806 132.207 82.0818 130.889C82.487 129.588 83.4488 128.758 84.9671 128.398C86.2382 128.097 87.2924 128.294 88.1296 128.989C88.9492 129.688 89.575 131.035 90.0071 133.03L91.8072 141.343L93.555 140.928L93.849 142.286C92.7841 142.597 91.9147 143.211 91.2409 144.128C90.5712 145.064 90.2607 146.244 90.3096 147.67L88.9325 147.996L88.0144 143.757L84.8896 144.498L84.5775 143.057L87.5965 142.341L85.8744 134.388C85.6344 133.28 85.3464 132.465 85.0106 131.942C84.6787 131.438 84.2744 131.243 83.7978 131.356C82.7561 131.603 82.5633 133.241 83.2194 136.27L82.266 136.497Z" fill="black"/>
<path d="M70.2596 136.388C70.5369 134.083 71.144 132.372 72.081 131.253C73.018 130.135 74.2824 129.544 75.8742 129.479C77.0319 129.432 78.0651 129.694 78.9738 130.264C79.8825 130.834 80.6027 131.696 81.1344 132.849C81.6661 134.003 81.9623 135.403 82.0231 137.05C82.0783 138.545 81.8851 139.937 81.4434 141.225C81.0025 142.531 80.3351 143.592 79.4413 144.405C78.5474 145.218 77.4854 145.65 76.2553 145.699C74.3741 145.775 72.9554 145.131 71.9993 143.767C71.0432 142.403 70.5243 140.614 70.4425 138.399L77.7956 138.102C77.5488 134.359 76.331 132.532 74.1423 132.62C73.473 132.647 72.8504 132.957 72.2744 133.549C71.6991 134.159 71.2808 135.096 71.0194 136.357L70.2596 136.388ZM76.2823 144.22C76.9335 144.193 77.3634 143.816 77.572 143.087C77.7806 142.358 77.8737 141.198 77.8512 139.607L74.6494 139.736C74.7088 141.345 74.8509 142.496 75.0757 143.188C75.2832 143.9 75.6853 144.244 76.2823 144.22Z" fill="black"/>
<path d="M57.5728 145.506C58.2764 145.685 58.7991 146.042 59.1407 146.577C59.4647 147.108 59.5499 147.704 59.3962 148.367C59.2383 149.048 58.8991 149.547 58.3788 149.863C57.8408 150.174 57.22 150.241 56.5163 150.062C55.8302 149.888 55.3252 149.536 55.0011 149.005C54.6595 148.47 54.5677 147.862 54.7256 147.181C54.8793 146.518 55.2251 146.031 55.7631 145.719C56.2835 145.403 56.8867 145.332 57.5728 145.506ZM58.5561 130.904C58.7098 130.241 58.7723 129.731 58.7435 129.373C58.7148 129.015 58.5768 128.726 58.3295 128.507C58.0603 128.303 57.6354 128.127 57.0549 127.979L57.2342 127.206L65.5463 129.317L65.3671 130.09C64.7865 129.942 64.3406 129.897 64.0292 129.955C63.696 130.026 63.4382 130.214 63.2558 130.518C63.0735 130.823 62.9054 131.307 62.7518 131.969L61.0294 139.397C60.8373 140.225 60.7444 140.786 60.7507 141.08C60.7528 141.392 60.8946 141.584 61.1761 141.656C61.4223 141.718 61.7779 141.711 62.2428 141.634L62.3602 142.453L59.9787 142.843L56.3929 143.365L55.8349 142.639L58.5561 130.904Z" fill="black"/>
<path d="M53.113 124.778C54.2597 125.296 55.1668 126.108 55.8342 127.214C55.9313 127.361 56.0214 127.453 56.1045 127.491C56.2375 127.551 56.3933 127.508 56.5719 127.362L57.0331 126.889L57.7062 127.193L55.4871 133.216L54.814 132.912C55.2102 131.378 55.2506 130.014 54.9352 128.82C54.5959 127.635 53.9444 126.825 52.9805 126.389C52.4653 126.156 52.0137 126.128 51.6258 126.303C51.2213 126.471 50.9042 126.833 50.6746 127.39C50.5383 127.72 50.4946 128.041 50.5438 128.352C50.5762 128.655 50.7143 129.038 50.9579 129.498C51.1778 129.969 51.5917 130.734 52.1999 131.793C53.0021 133.145 53.4996 134.257 53.6922 135.128C53.8611 136.009 53.7769 136.858 53.4396 137.676C53.088 138.528 52.6002 139.184 51.9762 139.645C51.3357 140.098 50.6314 140.348 49.8636 140.393C49.0791 140.43 48.3046 140.276 47.5401 139.931C46.5097 139.465 45.7581 138.754 45.2851 137.798C45.2119 137.641 45.1171 137.536 45.0007 137.484C44.8179 137.401 44.6502 137.449 44.4976 137.628L44.0257 138.126L43.3526 137.822L45.1338 132.933L45.8069 133.237C45.6161 134.368 45.6847 135.42 46.0126 136.394C46.3404 137.367 46.9032 138.034 47.701 138.394C48.1331 138.59 48.5276 138.613 48.8845 138.465C49.2414 138.317 49.506 138.034 49.6782 137.617C49.8002 137.321 49.845 137.021 49.8125 136.718C49.7562 136.424 49.6359 136.071 49.4516 135.657C49.2434 135.254 48.8897 134.63 48.3904 133.785C47.7917 132.751 47.3518 131.882 47.0708 131.177C46.7826 130.49 46.6287 129.812 46.609 129.143C46.5656 128.484 46.6945 127.789 46.9959 127.058C47.57 125.667 48.4232 124.794 49.5556 124.439C50.6808 124.102 51.8666 124.215 53.113 124.778Z" fill="black"/>
<path d="M40.6007 116.545C41.5633 117.377 42.2173 118.422 42.5627 119.68C42.6166 119.849 42.6785 119.964 42.7482 120.025C42.8598 120.121 43.0209 120.125 43.2315 120.037L43.8005 119.718L44.3655 120.207L40.6262 125.341L40.0612 124.852C40.8512 123.495 41.2543 122.198 41.2706 120.958C41.2614 119.721 40.8522 118.753 40.043 118.053C39.6105 117.679 39.1846 117.519 38.7653 117.574C38.3321 117.617 37.9309 117.872 37.5618 118.339C37.3426 118.617 37.215 118.912 37.1791 119.225C37.1292 119.526 37.1597 119.933 37.2705 120.447C37.3559 120.963 37.5491 121.818 37.8502 123.013C38.2592 124.546 38.4398 125.759 38.3921 126.652C38.3189 127.547 38.0113 128.338 37.4691 129.024C36.9039 129.739 36.2602 130.227 35.538 130.487C34.8019 130.735 34.0591 130.768 33.3098 130.587C32.5466 130.394 31.8441 130.019 31.2023 129.464C30.3373 128.716 29.8055 127.813 29.6069 126.757C29.5785 126.585 29.5154 126.456 29.4178 126.372C29.2643 126.239 29.0905 126.236 28.8962 126.363L28.3099 126.704L27.7449 126.215L30.7612 122.041L31.3262 122.53C30.8409 123.56 30.6257 124.591 30.6805 125.621C30.7353 126.652 31.0975 127.456 31.7672 128.036C32.1299 128.35 32.5024 128.488 32.8847 128.45C33.267 128.412 33.5966 128.218 33.8734 127.867C34.0695 127.619 34.1925 127.345 34.2424 127.044C34.2668 126.745 34.2457 126.371 34.1791 125.92C34.0871 125.471 33.9141 124.769 33.6603 123.812C33.3616 122.644 33.1715 121.681 33.0899 120.922C32.9967 120.178 33.0301 119.482 33.1899 118.834C33.3243 118.188 33.6337 117.559 34.1182 116.945C35.041 115.778 36.0934 115.189 37.2754 115.179C38.4459 115.184 39.5543 115.639 40.6007 116.545Z" fill="black"/>
<path d="M25.8025 110.7C27.6079 109.091 29.1619 108.167 30.4644 107.926C31.7532 107.699 32.9022 108.205 33.9116 109.445C34.7566 110.483 35.0793 111.552 34.8796 112.65C34.6682 113.734 33.8182 114.939 32.3298 116.266L26.1279 121.792L27.2899 123.22L26.2769 124.122C25.5196 123.28 24.5964 122.759 23.5073 122.56C22.4044 122.373 21.2608 122.634 20.0767 123.341L19.1612 122.216L22.3241 119.397L20.2467 116.845L21.3217 115.887L23.3287 118.353L29.2618 113.066C30.0887 112.329 30.6454 111.684 30.9318 111.13C31.2044 110.588 31.1822 110.123 30.8653 109.734C30.1729 108.883 28.6965 109.465 26.4363 111.479L25.8025 110.7Z" fill="black"/>
<path d="M14.7506 112.45C15.128 113.097 15.257 113.736 15.1376 114.367C15.0087 114.982 14.6662 115.467 14.1101 115.823C13.5384 116.188 12.9618 116.29 12.38 116.129C11.7888 115.952 11.3045 115.54 10.927 114.894C10.5591 114.263 10.4395 113.641 10.5684 113.026C10.6878 112.394 11.0333 111.896 11.6049 111.531C12.1611 111.176 12.7348 111.086 13.326 111.263C13.9077 111.424 14.3826 111.82 14.7506 112.45ZM25.3054 102.842C25.8615 102.486 26.2503 102.171 26.4718 101.897C26.6932 101.622 26.7903 101.316 26.7629 100.978C26.7107 100.634 26.5288 100.196 26.2175 99.6622L26.8663 99.2475L31.3246 106.885L30.6758 107.3C30.3644 106.767 30.0791 106.405 29.82 106.216C29.536 106.02 29.2267 105.962 28.892 106.043C28.5573 106.124 28.1119 106.342 27.5557 106.697L21.3222 110.681C20.627 111.125 20.1824 111.454 19.9884 111.666C19.779 111.889 19.7497 112.13 19.9007 112.388C20.0328 112.615 20.2893 112.872 20.6703 113.162L20.2003 113.828L18.2518 112.344L15.3613 110.062L15.4568 109.136L25.3054 102.842Z" fill="black"/>
<path d="M21.9569 95.171C22.5571 94.9054 22.9861 94.6538 23.2439 94.4163C23.4946 94.1614 23.6302 93.8648 23.6508 93.5267C23.6547 93.1959 23.5403 92.7427 23.3076 92.167L24.0078 91.8571L27.3398 100.1L26.6395 100.41C26.4068 99.8341 26.1757 99.4326 25.9462 99.2051C25.6929 98.9675 25.3951 98.8628 25.0526 98.891C24.7102 98.9191 24.2389 99.066 23.6387 99.3317L10.4343 105.176C9.76737 105.471 9.33614 105.692 9.14055 105.841C8.92829 105.996 8.868 106.188 8.95968 106.414C9.0584 106.659 9.35044 106.992 9.83581 107.415L9.33753 108.005L7.35248 106.231L4.34798 103.612L4.576 102.863L21.9569 95.171Z" fill="black"/>
<path d="M19.6096 86.6328C20.2418 86.467 20.7027 86.2875 20.9923 86.0944C21.2775 85.8828 21.4552 85.6117 21.5252 85.2809C21.5777 84.9547 21.5313 84.4884 21.386 83.8821L22.1235 83.6886L24.2036 92.3698L23.4661 92.5632C23.3208 91.9569 23.1515 91.5229 22.9582 91.2612C22.7428 90.9857 22.464 90.8343 22.1215 90.807C21.779 90.7797 21.2917 90.8489 20.6596 91.0148L6.75299 94.663C6.05063 94.8472 5.59192 94.9969 5.37687 95.1119C5.14425 95.2315 5.05656 95.4107 5.11379 95.6496C5.17542 95.9068 5.41494 96.2833 5.83235 96.7792L5.25314 97.2826L3.5527 95.2096L0.969132 92.1381L1.30455 91.435L19.6096 86.6328Z" fill="black"/>
<path d="M4.70456 74.1825C4.70176 74.9402 4.49132 75.5549 4.07322 76.0268C3.65519 76.4797 3.12034 76.7048 2.46866 76.7022C1.79888 76.6995 1.25666 76.47 0.841983 76.0137C0.42738 75.5385 0.221476 74.9221 0.224271 74.1644C0.226997 73.4257 0.437373 72.8299 0.855399 72.377C1.2735 71.9052 1.81743 71.6706 2.48721 71.6733C3.13889 71.6759 3.67203 71.9149 4.08664 72.3901C4.50131 72.8463 4.70728 73.4438 4.70456 74.1825ZM18.5074 71.7948C19.1591 71.7975 19.6481 71.7426 19.9743 71.6303C20.3006 71.5179 20.5367 71.3105 20.6826 71.0081C20.8105 70.6866 20.8756 70.2133 20.8779 69.5882L21.6382 69.5913L21.6052 78.5411L20.8449 78.538C20.8472 77.9129 20.7856 77.4486 20.66 77.1451C20.5163 76.8225 20.2818 76.6037 19.9564 76.4887C19.631 76.3738 19.1424 76.315 18.4908 76.3123L11.1865 76.2828C10.3719 76.2795 9.82873 76.3152 9.55692 76.3899C9.267 76.4645 9.12149 76.6533 9.12037 76.9564C9.11939 77.2216 9.20857 77.5818 9.38792 78.0371L8.65363 78.3467L7.73901 76.0132L6.4215 72.4847L6.96729 71.7482L18.5074 71.7948Z" fill="black"/>
<path d="M20.4486 70.271C20.5686 69.7168 20.5968 69.2865 20.5333 68.9801C20.452 68.6695 20.2645 68.4211 19.9707 68.2349C19.6769 68.0487 19.2123 67.8803 18.5767 67.7296L11.453 66.0407C10.6762 65.8565 10.1385 65.7679 9.84006 65.7748C9.54158 65.7818 9.36034 65.933 9.29634 66.2286C9.24833 66.4502 9.26743 66.8335 9.35363 67.3783L8.54612 67.5073L8.14376 64.9939L7.58418 61.278L8.27583 60.6554L11.0035 61.3021L11.0215 61.219C10.1575 60.2373 9.5359 59.2936 9.15661 58.388C8.78132 57.4639 8.70569 56.4846 8.9297 55.4501C9.15771 54.3971 9.69082 53.6495 10.529 53.2073C11.3672 52.7651 12.5102 52.7156 13.9579 53.0589L21.3729 54.8169C22.0084 54.9675 22.4951 55.0344 22.8329 55.0174C23.1747 54.9819 23.4442 54.8515 23.6414 54.6264C23.825 54.3786 23.9748 53.9868 24.0908 53.4511L24.8323 53.6269L23.1222 61.5242L22.3807 61.3484C22.4767 60.9051 22.487 60.5579 22.4114 60.3069C22.3221 60.0333 22.1266 59.8218 21.8248 59.6726C21.5271 59.5049 21.0604 59.3457 20.4248 59.195L13.2746 57.4998C12.6567 57.3533 12.1629 57.3625 11.7931 57.5273C11.4096 57.6694 11.1699 57.9622 11.0739 58.4055C10.8699 59.3477 11.3231 60.4262 12.4335 61.6411L19.5308 63.3238C20.1663 63.4745 20.651 63.5505 20.9848 63.552C21.3226 63.5349 21.5861 63.4323 21.7753 63.2441C21.9469 63.0518 22.0807 62.7339 22.1767 62.2905L22.9182 62.4663L21.1901 70.4468L20.4486 70.271Z" fill="black"/>
<path d="M30.504 44.8414C29.8529 45.9121 29.0373 46.6712 28.0571 47.1188C27.0617 47.5561 25.9593 47.6753 24.75 47.4764C23.5504 47.2614 22.3245 46.7371 21.0721 45.9033C19.7586 45.0288 18.7311 44.0193 17.9897 42.8746C17.2426 41.7037 16.8413 40.4936 16.7857 39.2442C16.7245 37.9687 17.0486 36.7477 17.758 35.5811C18.4771 34.3985 19.3552 33.6248 20.3923 33.2601C21.4392 32.8794 22.4437 33.0094 23.4058 33.65C24.0015 34.0465 24.3826 34.5136 24.5493 35.0511C24.7104 35.5624 24.6208 36.0978 24.2807 36.6571C23.9795 37.1525 23.5991 37.4605 23.1395 37.5811C22.6897 37.6857 22.251 37.5957 21.8233 37.311C21.6706 37.2093 21.4609 37.0248 21.1944 36.7575C20.9278 36.4903 20.7105 36.3007 20.5425 36.1888C20.2065 35.9651 19.901 35.8853 19.6261 35.9492C19.336 36.003 19.1083 36.1657 18.9431 36.4374C18.5641 37.0606 18.644 37.7761 19.1827 38.5838C19.7312 39.3755 20.6621 40.2086 21.9756 41.083C23.5487 42.1303 24.942 42.7324 26.1555 42.8892C27.3786 43.0301 28.2963 42.5971 28.9085 41.5903C29.7831 40.152 29.311 38.5467 27.4921 36.7745L27.8856 36.1273C29.692 37.532 30.7938 38.9839 31.191 40.4831C31.5881 41.9823 31.3591 43.4351 30.504 44.8414Z" fill="black"/>
<path d="M37.557 35.7892C36.5421 36.8434 35.4453 37.529 34.2666 37.846C33.0751 38.1495 31.8785 38.0847 30.6767 37.6515C29.4623 37.2049 28.3002 36.3969 27.1907 35.2274C26.1066 34.0848 25.3492 32.8698 24.9185 31.5824C24.475 30.2815 24.3962 29.0021 24.6822 27.7442C24.9554 26.4728 25.5995 25.31 26.6144 24.2558C27.6164 23.2149 28.7132 22.5426 29.9046 22.2391C31.0834 21.9221 32.28 21.987 33.4945 22.4336C34.7089 22.8802 35.8646 23.6815 36.9614 24.8375C38.0455 25.9801 38.8093 27.2019 39.2527 28.5027C39.6835 29.7902 39.7622 31.0696 39.489 32.3409C39.2159 33.5855 38.5719 34.7349 37.557 35.7892ZM36.7559 34.2592C37.2441 33.7521 37.3296 33.0895 37.0124 32.2712C36.6825 31.4396 36.1349 30.6205 35.3697 29.8139C34.4387 28.8327 33.4497 27.9516 32.4028 27.1708C31.3431 26.3765 30.3594 25.8371 29.4515 25.5523C28.5438 25.2408 27.8587 25.3253 27.3962 25.8057C26.908 26.3128 26.8289 26.9822 27.1588 27.8139C27.476 28.6321 28.0172 29.4445 28.7824 30.251C29.7134 31.2323 30.7088 32.12 31.7684 32.9143C32.8153 33.6951 33.7927 34.2413 34.7004 34.5528C35.6083 34.8375 36.2934 34.7397 36.7559 34.2592Z" fill="black"/>
<path d="M41.2113 29.9645C41.6839 29.6846 42.0071 29.4169 42.181 29.1615C42.3459 28.8897 42.3954 28.5774 42.3294 28.2247C42.2633 27.872 42.0698 27.399 41.7487 26.8056L38.1501 20.1547C37.7577 19.4294 37.4586 18.9536 37.2529 18.7272C37.0472 18.5008 36.8183 18.4623 36.5663 18.6116C36.3772 18.7236 36.1191 18.9962 35.7919 19.4295L35.1574 18.8912L36.6638 16.8887L38.9146 13.9554L39.8202 14.072L41.1981 16.6186L41.269 16.5766C41.3818 15.2473 41.6308 14.1312 42.016 13.2283C42.4169 12.316 43.0584 11.5986 43.9405 11.076C44.8385 10.5441 45.7257 10.4538 46.6023 10.8052C47.4789 11.1565 48.2828 12.008 49.0142 13.3596L52.76 20.2825C53.081 20.8759 53.3612 21.2976 53.6005 21.5477C53.8556 21.7884 54.129 21.9093 54.4209 21.9105C54.7196 21.8859 55.0974 21.7383 55.5543 21.4677L55.9288 22.16L49.1945 26.1494L48.8199 25.4571C49.198 25.2332 49.4503 25.0075 49.5769 24.7801C49.7104 24.527 49.7283 24.2334 49.6308 23.8993C49.549 23.556 49.3476 23.0876 49.0265 22.4942L45.4145 15.8186C45.1024 15.2417 44.7636 14.8655 44.3983 14.6901C44.0398 14.4889 43.6715 14.5003 43.2935 14.7243C42.4901 15.2002 42.0324 16.2767 41.9205 17.9537L45.5058 24.5799C45.8269 25.1733 46.0992 25.5997 46.3227 25.8591C46.562 26.1091 46.8118 26.2441 47.0722 26.2639C47.3237 26.2673 47.6385 26.157 48.0165 25.9331L48.3911 26.6254L41.5859 30.6568L41.2113 29.9645Z" fill="black"/>
<path d="M60.4721 21.873C59.2716 22.2339 58.078 22.2085 56.8914 21.7966C56.7272 21.7475 56.6016 21.7359 56.5146 21.7621C56.3754 21.8039 56.2811 21.9407 56.2317 22.1723L56.1618 22.8437L55.4572 23.0556L53.5201 16.9274L54.2247 16.7156C54.8484 18.1638 55.6444 19.2449 56.6127 19.9589C57.5934 20.6494 58.5883 20.843 59.5974 20.5396C60.1368 20.3775 60.5031 20.0998 60.6965 19.7066C60.9073 19.3082 60.9327 18.8177 60.7727 18.2352C60.6778 17.8893 60.517 17.6124 60.2904 17.4046C60.0812 17.1916 59.7428 16.9879 59.275 16.7935C58.8197 16.5757 58.036 16.2595 56.9239 15.8449C55.4834 15.332 54.4246 14.8029 53.7475 14.2576C53.0828 13.6889 52.633 12.9767 52.398 12.121C52.153 11.229 52.132 10.3978 52.3348 9.6273C52.5549 8.85161 52.9481 8.19144 53.5143 7.64677C54.0978 7.09687 54.7898 6.70161 55.5901 6.46099C56.6688 6.13668 57.6809 6.18712 58.6264 6.61234C58.7781 6.68495 58.9149 6.70295 59.0367 6.66633C59.2281 6.60879 59.3286 6.46033 59.3382 6.22095L59.4006 5.52227L60.1052 5.31041L61.6938 10.2722L60.9892 10.484C60.4506 9.48318 59.7595 8.71543 58.9158 8.18078C58.0721 7.64613 57.2327 7.50434 56.3976 7.75543C55.9452 7.89143 55.626 8.1352 55.4401 8.48674C55.2541 8.83827 55.2211 9.2325 55.341 9.66942C55.426 9.9789 55.5731 10.2402 55.7823 10.4532C56.0039 10.6428 56.3112 10.8361 56.7044 11.0332C57.1099 11.2069 57.7618 11.4544 58.6599 11.7756C59.7495 12.1772 60.6167 12.557 61.2612 12.915C61.9007 13.2548 62.431 13.6768 62.8519 14.1809C63.2852 14.6615 63.6069 15.2842 63.8169 16.0488C64.2168 17.5052 64.0868 18.7464 63.4268 19.7726C62.7619 20.7805 61.777 21.4807 60.4721 21.873Z" fill="black"/>
<path d="M73.4336 12.4051C73.68 14.873 73.5294 16.7368 72.9817 17.9965C72.4322 19.2373 71.3833 19.9424 69.8349 20.1116C68.5386 20.2533 67.5141 19.9273 66.7614 19.1335C66.0267 18.3378 65.5578 16.9226 65.3547 14.888L64.5082 6.4105L62.7258 6.60535L62.5876 5.22069C63.6802 5.04411 64.6129 4.54222 65.3858 3.715C66.1567 2.86894 66.5986 1.73509 66.7115 0.313457L68.1159 0.159943L68.5475 4.48348L71.7343 4.13512L71.881 5.60455L68.8023 5.9411L69.612 14.0513C69.7249 15.1816 69.9185 16.027 70.1928 16.5874C70.4653 17.1289 70.8446 17.3731 71.3307 17.32C72.393 17.2038 72.7699 15.601 72.4614 12.5114L73.4336 12.4051Z" fill="black"/>
<path d="M85.042 4.39492C85.619 4.44861 86.0455 4.66895 86.3216 5.05595C86.5976 5.44295 86.7068 5.97605 86.6491 6.65526C86.5833 7.42881 86.3583 8.04492 85.974 8.50358C85.5897 8.96224 85.1271 9.1664 84.5862 9.11606C84.2797 9.08754 84.032 9.00745 83.8433 8.87579C83.6742 8.72694 83.4763 8.48984 83.2495 8.16447C83.0376 7.87852 82.8627 7.6911 82.7248 7.60221C82.6066 7.49613 82.4754 7.43638 82.3312 7.42296C81.9886 7.39108 81.6349 7.59587 81.2703 8.03734C80.9056 8.47882 80.6117 9.05048 80.3885 9.75232L79.8473 16.1199C79.7847 16.8557 79.8178 17.4293 79.9464 17.8406C80.0946 18.2347 80.3787 18.5274 80.7986 18.7186C81.2366 18.9115 81.8973 19.049 82.7808 19.1312L82.7063 20.0086L73.3211 19.1352L73.3884 18.3428C73.9294 18.3931 74.3407 18.3649 74.6224 18.258C74.9057 18.1322 75.1158 17.9045 75.2529 17.575C75.3899 17.2455 75.4873 16.7411 75.545 16.0619L76.1921 8.44904C76.2626 7.61889 76.2747 7.04953 76.2282 6.74094C76.1817 6.43236 76.0143 6.26465 75.7258 6.2378C75.5094 6.21766 75.149 6.28871 74.6445 6.45095L74.4143 5.63085L80.1585 3.79786L80.8407 4.43183L80.5809 7.48828L80.6621 7.49583C81.2259 6.63552 81.8981 5.88988 82.6786 5.25892C83.4608 4.60909 84.2486 4.32109 85.042 4.39492Z" fill="black"/>
<path d="M93.5103 22.8898L94.3347 20.3622L94.2576 20.3346C93.3134 21.1182 92.4338 21.6747 91.6186 22.0041C90.8035 22.3334 89.8991 22.3207 88.9054 21.9658C87.9289 21.6171 87.2465 20.9531 86.8582 19.9738C86.4928 18.9828 86.5265 17.824 86.9592 16.4974L89.143 9.80198C89.3886 9.04908 89.5038 8.51983 89.4887 8.21423C89.4966 7.89682 89.3378 7.67999 89.0123 7.56375C88.8067 7.49034 88.4578 7.4458 87.9656 7.43014L87.9881 6.6576L94.1779 6.85661L94.4744 7.44284L91.1767 17.5532C90.9312 18.3061 90.8471 18.8865 90.9244 19.2944C91.0247 19.6905 91.2891 19.965 91.7174 20.118C92.1285 20.2648 92.5896 20.2293 93.1006 20.0115C93.6116 19.7937 94.1779 19.4355 94.7995 18.937L96.8781 12.5643C97.1237 11.8114 97.2389 11.2821 97.2239 10.9765C97.2317 10.6591 97.0729 10.4423 96.7474 10.326C96.5418 10.2526 96.1844 10.205 95.675 10.1832L95.6975 9.4107L98.1613 9.50998L101.887 9.60971L102.21 10.2051L98.816 20.5214C98.5529 21.3281 98.4144 21.8991 98.4007 22.2345C98.3928 22.5519 98.543 22.7656 98.8514 22.8758C99.0913 22.9614 99.4517 23 99.9326 22.9917L99.944 23.8363L97.4796 23.8269L94.1391 23.8648L93.5103 22.8898Z" fill="black"/>
<path d="M102.656 28.552C101.631 27.8747 100.902 27.024 100.471 26.0001C100.049 24.9601 99.9313 23.8071 100.117 22.541C100.318 21.285 100.815 20.0003 101.607 18.6868C102.438 17.3093 103.399 16.2305 104.49 15.4504C105.606 14.6645 106.761 14.2401 107.955 14.1773C109.174 14.1086 110.342 14.4433 111.46 15.1813C112.592 15.9294 113.335 16.8453 113.687 17.9292C114.055 19.0231 113.934 20.0746 113.326 21.0838C112.949 21.7085 112.504 22.109 111.991 22.2853C111.503 22.4558 110.991 22.3641 110.455 22.0102C109.981 21.6969 109.685 21.3 109.568 20.8196C109.466 20.3493 109.551 19.8899 109.821 19.4414C109.918 19.2812 110.093 19.0611 110.348 18.7812C110.602 18.5013 110.783 18.2732 110.889 18.097C111.101 17.7446 111.177 17.4247 111.115 17.1373C111.062 16.8339 110.906 16.5963 110.645 16.4244C110.048 16.0301 109.365 16.1163 108.595 16.683C107.84 17.2598 107.048 18.237 106.217 19.6145C105.222 21.2644 104.651 22.7245 104.506 23.9947C104.376 25.2751 104.793 26.2338 105.757 26.8707C107.135 27.7805 108.668 27.2806 110.355 25.3709L110.975 25.7803C109.639 27.6755 108.255 28.8337 106.824 29.2548C105.393 29.6759 104.003 29.4416 102.656 28.552Z" fill="black"/>
<path d="M118.413 32.7336C116.805 34.5568 115.368 35.6692 114.102 36.0707C112.849 36.4583 111.65 36.0996 110.506 34.9947C109.548 34.0696 109.106 33.0493 109.178 31.9337C109.264 30.831 109.97 29.528 111.297 28.0248L116.822 21.7617L115.505 20.4898L116.407 19.4668C117.256 20.2087 118.232 20.6102 119.336 20.6713C120.452 20.7184 121.558 20.3169 122.653 19.4668L123.69 20.469L120.872 23.6632L123.227 25.9372L122.269 27.0228L119.994 24.8259L114.708 30.8176C113.972 31.6527 113.493 32.3631 113.272 32.9487C113.063 33.5204 113.138 33.9797 113.497 34.3266C114.282 35.0846 115.681 34.3224 117.695 32.0398L118.413 32.7336Z" fill="black"/>
<path d="M129.408 29.8618C128.961 29.2658 128.762 28.647 128.81 28.0055C128.869 27.3789 129.155 26.8552 129.668 26.4342C130.195 26.0015 130.756 25.8295 131.352 25.9182C131.959 26.0218 132.486 26.3716 132.933 26.9676C133.368 27.5488 133.557 28.1526 133.497 28.7792C133.449 29.4207 133.162 29.9577 132.635 30.3904C132.122 30.8114 131.562 30.9701 130.955 30.8665C130.36 30.7778 129.844 30.4429 129.408 29.8618ZM119.998 40.6945C119.486 41.1155 119.135 41.4759 118.945 41.7758C118.756 42.0757 118.694 42.3916 118.759 42.7236C118.849 43.0588 119.079 43.4722 119.447 43.964L118.849 44.4551L113.569 37.4144L114.167 36.9233C114.536 37.415 114.859 37.7391 115.138 37.8957C115.442 38.0555 115.755 38.0748 116.079 37.9537C116.402 37.8327 116.82 37.5616 117.333 37.1407L123.079 32.4223C123.72 31.8961 124.125 31.5155 124.294 31.2805C124.477 31.0338 124.479 30.7912 124.3 30.5528C124.144 30.3442 123.86 30.1195 123.45 29.8788L123.842 29.1594L125.943 30.3958L129.068 32.3079L129.077 33.2399L119.998 40.6945Z" fill="black"/>
<path d="M121.227 50.1144C120.583 48.7783 120.299 47.4748 120.376 46.2039C120.469 44.9245 120.898 43.7539 121.664 42.6923C122.446 41.6221 123.539 40.716 124.946 39.9739C126.32 39.2489 127.658 38.8714 128.961 38.8412C130.281 38.8026 131.468 39.1202 132.523 39.794C133.593 40.4594 134.451 41.4601 135.095 42.7961C135.731 44.1153 136.002 45.4146 135.909 46.6941C135.832 47.965 135.403 49.1355 134.621 50.2057C133.84 51.2758 132.754 52.1777 131.364 52.9112C129.99 53.6362 128.643 54.0181 127.324 54.0567C126.02 54.0869 124.833 53.7693 123.763 53.1039C122.716 52.447 121.871 51.4505 121.227 50.1144ZM122.865 49.7908C123.175 50.4335 123.751 50.7236 124.592 50.6613C125.45 50.5904 126.364 50.2991 127.334 49.7873C128.514 49.1647 129.621 48.4534 130.654 47.6534C131.704 46.8448 132.499 46.033 133.038 45.2178C133.602 44.411 133.738 43.7032 133.444 43.0944C133.134 42.4517 132.551 42.1658 131.693 42.2367C130.851 42.299 129.945 42.5861 128.975 43.0978C127.796 43.7205 126.681 44.4361 125.631 45.2446C124.597 46.0446 123.799 46.848 123.235 47.6548C122.695 48.47 122.572 49.182 122.865 49.7908Z" fill="black"/>
<path d="M125.343 55.4189C125.45 55.9758 125.593 56.3803 125.771 56.6325C125.967 56.8808 126.236 57.0269 126.577 57.0705C126.918 57.1142 127.407 57.0683 128.046 56.9329L135.205 55.415C135.985 55.2495 136.511 55.0995 136.78 54.965C137.05 54.8306 137.155 54.6148 137.098 54.3178C137.055 54.0951 136.887 53.7537 136.595 53.2939L137.281 52.8296L138.633 54.949L140.601 58.0976L140.214 58.9623L137.473 59.5435L137.489 59.627C138.662 60.1514 139.599 60.7451 140.3 61.4082C141.004 62.0898 141.457 62.9504 141.659 63.99C141.863 65.0482 141.67 65.9588 141.079 66.7219C140.488 67.485 139.465 68.0208 138.011 68.3292L130.559 69.9092C129.92 70.0446 129.45 70.1926 129.149 70.3532C128.851 70.5323 128.657 70.7668 128.565 71.0568C128.495 71.3616 128.512 71.7832 128.616 72.3215L127.871 72.4795L126.334 64.5434L127.079 64.3854C127.165 64.8309 127.292 65.1519 127.459 65.3483C127.648 65.5596 127.909 65.6685 128.243 65.675C128.58 65.7001 129.068 65.645 129.707 65.5095L136.892 63.986C137.513 63.8543 137.96 63.6339 138.233 63.3249C138.527 63.0307 138.631 62.6608 138.544 62.2152C138.361 61.2685 137.525 60.4794 136.036 59.8482L128.904 61.3604C128.265 61.4959 127.793 61.6346 127.488 61.7765C127.187 61.9371 126.987 62.1438 126.888 62.3966C126.807 62.6457 126.809 62.9931 126.896 63.4386L126.15 63.5966L124.597 55.5769L125.343 55.4189Z" fill="black"/>
<path d="M126.784 74.7507C126.78 74.1446 126.984 73.622 127.397 73.183C127.81 72.744 128.306 72.5222 128.886 72.5175C129.465 72.5128 129.955 72.7267 130.357 73.1591C130.776 73.5914 130.988 74.1106 130.993 74.7167C130.997 75.3228 130.793 75.8359 130.379 76.256C129.984 76.6948 129.497 76.9166 128.918 76.9213C128.339 76.926 127.839 76.7122 127.42 76.2799C127 75.8665 126.789 75.3568 126.784 74.7507Z" fill="black"/>
</svg>
